<?xml version="1.0" standalone="no"?>
<!DOCTYPE svg PUBLIC "-//W3C//DTD SVG 20010904//EN"
 "http://www.w3.org/TR/2001/REC-SVG-20010904/DTD/svg10.dtd">
<svg version="1.0" xmlns="http://www.w3.org/2000/svg"
 width="1536.000000pt" height="1536.000000pt" viewBox="0 0 1536.000000 1536.000000"
 preserveAspectRatio="xMidYMid meet">
<metadata>
Created by potrace 1.16, written by Peter Selinger 2001-2019
</metadata>
<g transform="translate(0.000000,1536.000000) scale(0.100000,-0.100000)"
fill="#000000" stroke="none">
<path d="M5510 14353 c-36 -2 -155 -8 -265 -13 -258 -12 -326 -21 -405 -54
-36 -15 -84 -34 -108 -41 -24 -8 -55 -23 -70 -33 -15 -11 -56 -34 -92 -52 -35
-18 -80 -45 -100 -61 -19 -15 -52 -35 -72 -44 -30 -12 -118 -92 -193 -175 -5
-6 -51 -50 -101 -98 -50 -48 -105 -112 -123 -142 -17 -30 -48 -80 -67 -110
-18 -30 -34 -62 -34 -72 0 -23 -32 -93 -81 -178 -20 -36 -49 -103 -64 -150
-35 -107 -31 -104 -103 -86 -67 18 -238 21 -304 6 -24 -5 -81 -14 -128 -19
-134 -15 -264 -79 -290 -140 -7 -17 -28 -40 -46 -52 -19 -11 -34 -24 -34 -28
0 -4 -23 -34 -50 -65 -59 -68 -106 -165 -119 -247 -6 -32 -15 -67 -20 -78 -6
-11 -11 -37 -11 -59 0 -81 -111 -101 -230 -42 -67 34 -202 53 -314 45 -55 -4
-146 -10 -201 -13 -140 -10 -323 -97 -425 -203 -212 -220 -246 -286 -269 -534
-20 -205 -7 -185 -125 -186 -98 -1 -214 -10 -346 -27 -86 -11 -202 -58 -254
-103 -22 -19 -67 -53 -99 -73 -95 -63 -219 -205 -238 -273 -12 -43 -25 -65
-56 -92 -41 -36 -65 -81 -43 -81 6 0 14 8 17 18 4 9 25 34 48 54 33 29 44 48
54 90 13 62 153 220 241 274 25 15 64 43 86 63 51 45 168 92 254 103 132 17
248 26 347 27 121 1 111 -12 129 164 31 285 57 340 269 561 99 103 283 189
425 198 58 4 144 10 192 14 96 7 234 -14 298 -46 19 -9 69 -22 111 -28 42 -6
83 -14 92 -18 11 -4 17 -1 17 8 0 8 9 23 20 33 14 12 20 31 20 57 0 22 5 48
11 59 5 11 14 46 20 78 12 80 60 180 113 240 24 27 48 56 53 63 4 8 22 24 39
36 17 12 37 35 44 51 24 58 149 117 280 132 47 5 104 14 128 19 71 17 220 12
302 -10 41 -10 75 -18 76 -17 1 1 16 47 34 102 18 55 49 129 69 165 49 85 81
155 81 178 0 10 16 42 34 72 19 30 50 80 67 110 18 30 71 91 118 135 46 44 98
96 115 115 63 72 142 142 176 156 19 8 51 28 70 43 20 16 65 43 100 61 36 18
77 41 92 52 15 10 46 25 70 33 24 7 72 26 108 41 107 45 741 90 783 56 7 -6
38 -17 68 -23 30 -6 68 -18 84 -27 29 -15 60 -22 185 -41 71 -11 158 -53 200
-96 19 -19 39 -35 44 -35 6 0 34 -16 61 -36 28 -19 68 -47 90 -62 77 -52 124
-95 212 -194 115 -130 138 -142 230 -117 37 11 78 19 90 19 13 0 40 11 61 24
20 13 56 27 79 30 23 3 64 20 92 37 148 92 635 145 816 88 33 -10 76 -19 96
-19 19 0 39 -4 45 -9 12 -11 96 -31 131 -31 35 0 199 -57 235 -82 14 -10 29
-18 33 -18 4 0 24 -13 44 -28 20 -16 52 -34 71 -42 54 -20 176 -99 240 -156
32 -29 68 -59 82 -68 13 -8 37 -34 53 -57 17 -23 65 -79 108 -125 42 -45 77
-89 77 -97 0 -15 82 -171 103 -196 21 -24 87 -171 87 -192 0 -10 16 -54 35
-98 19 -43 35 -92 35 -108 1 -31 40 -168 55 -194 9 -15 26 -16 170 -7 384 23
575 -29 700 -192 26 -33 60 -67 77 -76 19 -10 38 -33 53 -67 85 -186 114 -205
254 -158 66 22 138 51 160 65 22 14 43 26 46 26 2 0 53 23 112 52 79 38 126
54 173 59 36 4 96 13 135 20 54 9 82 9 130 -1 33 -7 98 -16 145 -20 84 -8 180
-42 250 -90 14 -10 44 -21 68 -25 25 -4 57 -19 75 -34 18 -15 48 -37 67 -49
123 -76 370 -398 370 -483 0 -19 7 -59 15 -89 17 -64 11 -74 -56 -85 -22 -4
-76 -20 -122 -36 -45 -16 -98 -29 -117 -29 -19 0 -53 -9 -76 -19 -23 -10 -61
-22 -85 -26 -56 -9 -129 -46 -201 -102 -31 -24 -80 -55 -108 -70 -50 -26 -158
-131 -202 -197 -13 -18 -46 -68 -75 -110 -29 -43 -55 -87 -58 -99 -3 -12 -17
-47 -30 -77 -49 -114 -59 -153 -84 -343 -16 -118 -15 -117 -124 -117 -154 -1
-248 -32 -314 -103 -21 -23 -49 -49 -63 -58 -14 -9 -22 -20 -18 -24 10 -11 69
29 100 68 49 62 155 96 305 97 112 0 117 5 133 125 26 192 36 231 85 345 13
30 27 65 30 77 3 12 29 56 58 99 29 42 62 91 74 110 44 65 143 161 193 187 28
15 77 46 108 70 72 56 145 93 201 102 24 4 62 16 85 26 23 10 56 19 75 19 19
0 75 13 125 30 220 72 184 73 384 -15 18 -8 45 -15 60 -15 15 0 72 -23 126
-50 55 -28 109 -50 121 -50 12 0 34 -14 51 -31 16 -17 54 -48 85 -70 66 -44
144 -128 168 -179 9 -20 32 -58 52 -85 20 -28 46 -69 58 -92 12 -24 28 -43 35
-43 8 0 16 -5 18 -11 3 -9 9 -9 23 -1 11 6 58 23 105 38 47 14 137 51 200 82
197 95 566 141 712 89 24 -9 72 -21 108 -28 36 -6 85 -24 111 -40 25 -16 57
-29 70 -29 13 0 36 -8 50 -18 49 -33 174 -141 186 -161 7 -11 36 -38 65 -61
29 -22 67 -58 83 -80 31 -41 45 -49 45 -27 0 8 -27 40 -61 73 -34 32 -84 82
-113 110 -114 112 -209 184 -245 184 -13 0 -45 13 -70 29 -29 18 -77 35 -129
45 -46 9 -93 21 -103 27 -21 11 -365 14 -428 3 -97 -15 -175 -41 -266 -86
-222 -110 -353 -140 -376 -86 -7 17 -31 56 -53 87 -23 31 -48 72 -58 91 -23
51 -111 145 -177 189 -31 22 -69 53 -85 70 -17 17 -39 31 -51 31 -12 0 -66 22
-121 50 -54 27 -110 50 -124 50 -14 0 -64 16 -110 36 -47 20 -99 41 -117 46
-33 11 -63 91 -63 169 0 84 -257 416 -380 491 -19 12 -49 34 -67 49 -18 15
-50 30 -75 34 -24 4 -54 15 -68 25 -70 47 -166 82 -250 90 -47 4 -114 14 -150
21 -53 10 -81 10 -140 0 -41 -7 -104 -15 -140 -20 -58 -6 -208 -67 -305 -123
-242 -139 -313 -130 -399 47 -27 55 -47 82 -70 96 -18 10 -53 46 -79 78 -126
163 -322 216 -715 194 -95 -5 -146 -5 -150 2 -13 20 -51 160 -52 188 0 16 -16
65 -35 108 -19 44 -35 88 -35 98 0 21 -66 168 -87 192 -21 25 -103 181 -103
196 0 8 -35 52 -77 97 -43 46 -91 102 -108 125 -16 24 -43 53 -60 64 -16 12
-55 44 -87 72 -63 56 -185 135 -238 155 -19 8 -51 26 -71 42 -20 15 -40 28
-44 28 -4 0 -19 8 -33 18 -36 25 -200 82 -235 82 -35 0 -119 20 -131 31 -6 5
-26 9 -45 9 -20 0 -63 9 -96 19 -185 58 -686 5 -836 -88 -28 -17 -69 -34 -92
-37 -23 -3 -59 -17 -79 -30 -21 -13 -47 -24 -59 -24 -12 0 -48 -7 -81 -15 -88
-23 -108 -13 -214 106 -89 101 -143 151 -219 201 -22 15 -62 43 -90 62 -27 20
-55 36 -61 36 -5 0 -25 16 -44 35 -42 43 -129 85 -200 96 -125 19 -156 26
-185 41 -16 9 -53 20 -80 26 -28 6 -64 18 -80 26 -17 9 -37 15 -45 14 -8 -1
-44 -3 -80 -5z"/>
<path d="M4600 11608 c-25 -5 -63 -18 -85 -28 -23 -10 -60 -23 -83 -29 -23 -7
-58 -21 -78 -33 -19 -11 -76 -41 -126 -67 -70 -35 -100 -57 -126 -91 -19 -24
-48 -51 -64 -59 -16 -8 -42 -30 -56 -49 -15 -19 -37 -44 -50 -56 -13 -11 -40
-48 -60 -81 -20 -33 -50 -80 -68 -105 -17 -25 -34 -62 -37 -82 -3 -20 -13 -52
-21 -70 -18 -38 -45 -184 -46 -243 0 -22 -7 -58 -15 -80 -8 -22 -14 -71 -15
-110 -1 -95 9 -90 -190 -90 -175 0 -175 0 -237 -32 -34 -18 -68 -33 -75 -33
-7 0 -36 -23 -64 -52 -120 -122 -169 -129 -292 -42 -26 19 -51 34 -55 34 -4 0
-45 22 -91 50 -45 27 -100 56 -122 64 -21 7 -63 26 -93 41 -36 19 -80 31 -130
36 -42 5 -103 13 -136 19 -126 21 -354 10 -430 -21 -11 -4 -75 -26 -142 -48
-115 -37 -186 -75 -244 -130 -13 -12 -35 -29 -49 -36 -40 -22 -214 -205 -253
-267 -45 -69 -80 -98 -121 -98 -35 0 -173 18 -226 29 -57 12 -255 -5 -334 -29
-120 -37 -140 -50 -245 -163 -14 -16 -43 -37 -64 -48 -33 -17 -67 -65 -67 -94
0 -18 23 0 32 25 6 18 23 37 42 47 42 21 97 70 118 104 62 101 328 162 568
129 221 -31 201 -31 240 -1 19 15 53 55 75 87 45 68 207 238 245 259 14 7 37
24 51 36 64 60 125 92 241 130 68 22 132 44 143 48 76 31 286 42 410 21 33 -6
94 -14 136 -19 50 -5 94 -17 130 -36 30 -15 72 -34 93 -41 22 -8 77 -37 122
-64 46 -28 87 -50 91 -50 4 0 30 -15 56 -34 26 -19 77 -42 112 -51 68 -19 95
-59 95 -140 0 -35 21 -85 62 -150 21 -34 41 -75 44 -93 6 -32 18 -41 28 -23 8
12 -19 74 -60 138 -19 30 -39 75 -45 101 -6 26 -17 72 -25 102 -14 55 -14 55
17 80 17 14 54 49 83 78 28 28 57 52 64 52 7 0 41 15 75 33 62 32 62 32 244
31 209 0 192 -9 193 106 1 36 7 83 15 105 8 22 15 58 15 80 1 59 28 205 46
243 8 18 18 50 21 70 3 20 23 62 43 92 21 30 54 81 74 113 20 31 39 57 44 57
4 0 22 19 39 43 16 24 45 51 64 59 19 9 48 36 65 61 25 34 50 53 120 87 49 25
105 54 125 66 20 13 56 28 80 34 24 7 61 20 84 30 89 41 450 49 488 11 6 -6
20 -11 32 -11 11 0 52 -13 90 -29 39 -16 90 -35 114 -42 24 -7 53 -20 65 -29
11 -10 42 -29 69 -43 58 -33 277 -224 277 -243 0 -11 56 -133 87 -189 67 -121
113 -251 113 -320 0 -45 15 -115 25 -115 2 0 32 6 67 14 106 25 419 38 511 22
81 -14 88 -19 172 -97 28 -26 66 -56 85 -67 54 -29 190 -240 190 -294 0 -9 7
-33 17 -54 13 -32 16 -69 14 -205 -2 -186 0 -189 145 -189 38 0 67 -6 88 -19
17 -10 45 -22 62 -25 18 -4 40 -16 50 -27 10 -12 40 -36 66 -56 37 -26 52 -46
65 -85 10 -27 25 -54 34 -59 17 -9 168 19 226 42 80 32 123 37 229 28 115 -10
121 -12 197 -70 49 -37 77 -48 77 -31 0 6 -54 46 -129 94 -18 12 -64 21 -141
28 -117 10 -147 6 -236 -26 -56 -21 -202 -52 -212 -45 -4 3 -16 27 -26 54 -13
36 -31 58 -75 91 -31 24 -63 51 -70 59 -7 9 -27 19 -44 22 -18 4 -46 16 -63
26 -21 13 -50 19 -90 19 -135 0 -137 3 -132 171 4 126 2 157 -13 202 -10 28
-18 58 -19 66 -1 58 -160 301 -197 301 -7 0 -41 26 -75 58 -35 31 -73 65 -85
76 -54 45 -411 54 -616 14 -71 -13 -69 -16 -77 84 -9 99 -44 198 -113 323 -32
57 -87 178 -87 190 0 19 -228 219 -287 251 -26 15 -58 34 -69 44 -12 9 -41 22
-65 29 -24 7 -75 26 -114 42 -38 16 -79 29 -90 29 -12 0 -26 5 -33 12 -21 21
-341 34 -422 16z"/>
<path d="M9805 8744 c-38 -7 -106 -13 -150 -13 -45 -1 -85 -5 -90 -10 -6 -5
-37 -11 -71 -13 -47 -3 -72 -11 -109 -36 -30 -20 -61 -32 -81 -32 -18 0 -53
-6 -76 -14 -24 -8 -59 -17 -78 -21 -19 -4 -60 -22 -90 -41 -30 -18 -85 -45
-122 -59 -94 -34 -253 -120 -312 -166 -27 -22 -52 -39 -57 -39 -4 0 -34 -21
-67 -47 -33 -27 -80 -62 -105 -80 -26 -18 -58 -50 -72 -73 -14 -22 -38 -46
-53 -51 -15 -6 -35 -15 -44 -20 -10 -5 -31 -9 -47 -9 -15 0 -47 -7 -70 -15
-44 -15 -95 2 -267 89 -29 14 -57 26 -64 26 -6 0 -30 11 -53 24 -92 53 -319
81 -532 66 -169 -12 -188 -16 -262 -56 -34 -19 -72 -34 -85 -34 -102 -1 -479
-326 -519 -447 -6 -21 -25 -56 -40 -78 -16 -22 -32 -56 -35 -75 -4 -19 -19
-74 -35 -122 -17 -50 -29 -108 -29 -138 0 -28 -7 -64 -15 -80 -20 -39 -33
-267 -17 -297 12 -21 19 -360 8 -370 -3 -4 -32 1 -63 10 -32 9 -85 19 -118 22
-79 8 -109 18 -237 77 -61 28 -133 53 -169 59 -34 5 -70 14 -80 19 -51 28
-422 0 -515 -38 -27 -11 -61 -23 -76 -26 -51 -11 -173 -75 -225 -118 -28 -24
-66 -52 -85 -63 -18 -11 -46 -41 -63 -66 -16 -25 -44 -56 -63 -68 -23 -15 -43
-43 -63 -86 -15 -34 -41 -82 -57 -106 -18 -27 -34 -70 -41 -109 -30 -159 -54
-175 -228 -145 -67 12 -123 15 -182 10 -153 -11 -157 -12 -243 -81 -44 -36
-88 -70 -99 -77 -10 -6 -19 -15 -19 -19 0 -20 32 -2 117 66 99 80 96 79 253
91 48 4 106 0 160 -9 199 -36 227 -19 261 157 7 35 24 81 41 106 16 24 42 71
57 106 20 43 39 68 60 81 18 11 46 41 62 67 16 27 44 56 61 65 17 9 54 36 82
60 51 42 173 107 224 118 15 3 49 15 76 26 93 38 445 65 495 38 10 -5 46 -14
81 -19 35 -6 105 -30 159 -55 131 -62 168 -74 253 -82 40 -4 90 -13 112 -20
100 -36 104 -26 93 211 -14 284 -11 417 7 453 9 17 16 54 16 82 0 30 12 88 29
138 16 48 31 103 35 122 3 19 19 53 35 75 15 22 34 57 40 78 40 120 408 436
509 437 13 0 51 15 85 34 156 85 620 79 774 -10 23 -13 47 -24 53 -24 7 0 35
-12 64 -26 112 -57 250 -114 255 -106 9 13 70 32 103 32 15 0 36 4 46 8 9 5
30 15 47 23 16 8 42 34 58 57 16 23 49 56 75 74 26 18 71 51 100 75 29 24 57
43 61 43 5 0 30 17 57 39 59 46 218 132 312 166 37 14 92 41 122 59 30 19 71
37 90 41 19 4 54 13 78 21 23 8 58 14 76 14 20 0 51 12 81 32 37 25 62 33 109
36 34 2 65 8 71 13 5 5 42 9 83 9 41 0 116 7 168 16 116 20 572 6 621 -19 15
-8 62 -17 103 -20 45 -3 92 -14 117 -26 23 -12 51 -21 62 -21 11 0 32 -5 48
-11 15 -6 49 -14 74 -19 25 -5 81 -31 125 -57 43 -27 108 -57 143 -68 34 -10
82 -31 106 -46 23 -15 64 -37 91 -48 27 -12 67 -39 89 -59 54 -51 113 -95 154
-117 72 -37 270 -222 271 -253 0 -8 45 -59 99 -113 112 -112 103 -109 241 -83
154 28 221 33 260 16 19 -8 83 -18 141 -22 58 -4 119 -14 135 -23 16 -8 45
-17 64 -20 49 -7 138 -51 192 -95 26 -20 64 -50 85 -65 22 -15 57 -50 78 -77
38 -48 55 -61 55 -41 0 15 -89 115 -125 141 -20 14 -57 42 -83 62 -54 44 -143
88 -192 95 -19 3 -48 12 -64 20 -16 9 -77 19 -135 23 -58 4 -122 14 -142 23
-40 18 -116 13 -279 -17 -47 -9 -93 -16 -103 -16 -21 0 -207 181 -207 202 -1
31 -208 226 -281 263 -41 22 -100 66 -154 117 -22 20 -62 47 -89 59 -27 11
-68 33 -91 48 -24 15 -72 36 -106 46 -35 11 -100 41 -143 68 -44 26 -100 52
-125 57 -25 5 -59 13 -74 19 -16 6 -37 11 -48 11 -11 0 -39 9 -62 21 -25 12
-72 23 -117 26 -41 3 -88 12 -103 20 -54 27 -533 40 -652 17z"/>
<path d="M13532 6360 c-23 -14 -50 -20 -93 -20 -36 0 -73 -7 -92 -17 -18 -9
-45 -20 -62 -24 -54 -13 -139 -53 -215 -101 -128 -81 -151 -99 -167 -134 -9
-19 -34 -45 -55 -59 -20 -14 -56 -49 -79 -77 -80 -103 -153 -112 -429 -57
-148 30 -490 17 -534 -20 -9 -8 -37 -17 -62 -22 -25 -5 -60 -19 -77 -31 -17
-13 -49 -32 -70 -43 -25 -13 -48 -35 -62 -60 -14 -26 -38 -49 -68 -65 -51 -28
-130 -125 -162 -200 -10 -25 -26 -54 -35 -65 -37 -45 -60 -94 -68 -149 -6 -37
-16 -62 -26 -68 -18 -10 -22 -28 -6 -28 24 0 47 40 53 89 6 49 30 102 66 144
9 10 25 40 36 66 31 72 105 168 145 187 48 23 68 42 87 82 11 22 29 40 52 49
19 8 49 26 66 39 18 13 53 28 78 33 26 4 54 14 63 22 44 36 372 49 509 20 50
-10 130 -22 178 -26 49 -3 99 -10 112 -15 36 -14 121 37 168 99 20 28 56 63
78 78 22 15 49 43 59 63 18 36 32 47 164 131 70 44 157 84 211 98 17 4 44 15
62 24 19 10 56 17 92 17 43 0 70 6 93 20 63 38 312 19 377 -28 19 -14 50 -29
70 -33 90 -20 133 -37 173 -69 50 -41 125 -90 137 -90 38 0 157 -141 210 -249
65 -133 112 -181 180 -181 37 0 195 -44 258 -72 44 -19 221 -176 241 -213 9
-18 17 -64 20 -112 2 -46 9 -83 14 -83 16 0 4 170 -14 205 -20 37 -207 204
-251 223 -63 28 -221 72 -257 72 -67 0 -110 43 -172 172 -52 107 -180 258
-219 258 -12 0 -87 49 -137 90 -40 32 -83 49 -173 69 -20 4 -51 19 -70 33 -65
48 -333 67 -397 28z"/>
<path d="M10460 5325 c-70 -16 -204 -95 -188 -111 3 -3 37 14 75 37 83 51 166
72 211 53 16 -6 56 -17 87 -24 63 -13 129 -67 141 -115 7 -29 24 -34 24 -7 0
54 -81 126 -161 143 -29 6 -67 18 -85 25 -38 16 -31 16 -104 -1z"/>
<path d="M1210 5130 c-36 -10 -81 -19 -100 -19 -63 -2 -176 -66 -220 -126 -22
-29 -59 -70 -84 -90 -34 -27 -47 -46 -52 -73 -3 -21 -13 -62 -22 -92 -18 -63
-22 -152 -7 -157 6 -2 10 17 11 44 0 27 7 73 16 103 9 30 18 71 22 90 4 26 19
46 52 74 25 21 61 60 80 87 39 53 154 119 210 119 16 0 66 9 110 21 82 22 92
22 294 0 110 -11 240 -103 293 -207 30 -58 114 -118 212 -149 50 -16 101 -35
115 -42 28 -15 50 -17 50 -5 0 11 -56 35 -160 69 -92 29 -170 84 -197 138 -20
39 -166 182 -201 197 -74 31 -338 42 -422 18z"/>
<path d="M8155 4920 c-136 -6 -224 -33 -277 -82 -17 -16 -51 -40 -74 -54 -47
-28 -78 -70 -89 -121 -9 -47 12 -42 25 5 13 47 34 72 85 103 22 13 52 35 67
49 85 85 390 112 528 47 115 -54 177 -96 214 -145 21 -29 45 -52 52 -52 19 0
18 4 -8 35 -66 78 -91 105 -101 105 -6 0 -40 17 -76 39 -118 70 -169 80 -346
71z"/>
<path d="M2040 3936 c-20 -12 -64 -15 -210 -16 -102 0 -201 -5 -220 -10 -19
-6 -89 -13 -155 -16 -66 -3 -145 -12 -176 -20 -31 -8 -77 -14 -102 -14 -24 0
-61 -7 -81 -15 -41 -17 -125 -33 -241 -45 -176 -18 -287 -45 -383 -94 -15 -7
-56 -17 -92 -20 -118 -13 -170 -28 -188 -54 -10 -14 -50 -56 -90 -95 -73 -71
-110 -123 -97 -135 4 -4 12 2 19 13 6 11 37 47 68 80 63 67 71 66 119 -12 37
-60 153 -73 664 -77 401 -4 650 -16 715 -36 19 -5 51 -10 71 -10 20 0 53 -7
72 -15 25 -10 80 -16 174 -18 76 -2 144 -7 151 -11 12 -7 244 -30 462 -45 52
-3 104 -11 116 -18 11 -7 56 -15 100 -18 75 -6 116 -13 309 -50 44 -9 107 -20
140 -25 33 -5 83 -14 110 -19 28 -5 91 -10 140 -11 50 0 110 -6 135 -14 25 -7
79 -17 120 -21 91 -9 187 -31 219 -52 13 -8 60 -19 105 -24 202 -24 269 -34
371 -60 22 -6 60 -14 85 -18 25 -5 58 -13 73 -20 16 -6 43 -11 62 -11 18 0 75
-11 126 -24 52 -13 128 -26 169 -29 41 -4 104 -16 140 -27 107 -35 131 -41
240 -54 58 -7 119 -18 135 -24 90 -31 143 -44 203 -52 37 -4 87 -15 112 -23
95 -32 153 -47 177 -47 13 0 36 -6 51 -14 15 -7 47 -17 72 -21 25 -4 78 -16
117 -26 40 -10 89 -19 109 -19 21 0 61 -11 91 -25 29 -14 82 -30 116 -35 34
-4 105 -20 157 -33 54 -14 155 -30 235 -37 77 -6 174 -16 215 -22 41 -6 130
-14 197 -17 132 -6 129 -5 176 -76 43 -65 142 -113 279 -135 29 -5 85 -17 123
-28 147 -40 205 -52 244 -52 22 0 55 -9 75 -21 19 -11 80 -33 135 -49 56 -16
109 -34 119 -39 11 -6 50 -15 88 -21 38 -6 85 -16 104 -24 19 -7 69 -23 110
-36 41 -12 89 -27 106 -35 40 -17 139 -41 234 -56 41 -6 80 -16 87 -21 7 -5
41 -14 75 -19 122 -17 164 -27 218 -52 72 -33 115 -46 175 -53 28 -3 97 -22
155 -43 190 -69 204 -73 275 -81 39 -4 99 -17 135 -29 36 -12 101 -31 146 -41
45 -11 104 -28 133 -40 28 -11 68 -20 89 -20 20 -1 48 -7 62 -15 14 -8 36 -14
50 -15 14 0 57 -12 95 -26 39 -14 108 -32 155 -40 79 -13 119 -25 242 -75 26
-10 57 -19 70 -19 33 0 151 -26 174 -38 10 -5 39 -13 64 -17 25 -4 50 -11 55
-16 36 -28 291 -85 450 -99 50 -4 135 -17 190 -29 65 -13 135 -20 202 -20 76
1 117 -4 165 -19 70 -23 168 -36 168 -23 0 13 -26 21 -64 21 -18 0 -59 9 -92
21 -45 15 -89 21 -189 23 -78 2 -158 10 -200 20 -38 10 -115 21 -170 26 -166
16 -413 70 -450 99 -5 5 -30 12 -55 16 -25 4 -54 12 -64 17 -23 12 -141 38
-174 38 -13 0 -44 9 -70 19 -123 50 -163 62 -242 75 -47 8 -116 26 -155 40
-38 14 -81 26 -95 26 -14 1 -36 7 -50 15 -14 8 -42 14 -62 15 -21 0 -61 9 -89
20 -29 12 -88 29 -133 40 -45 10 -110 29 -146 41 -36 12 -96 25 -135 29 -71 8
-85 12 -275 81 -58 21 -127 40 -155 43 -60 7 -103 20 -175 53 -54 25 -96 35
-218 52 -34 5 -68 14 -75 19 -7 5 -46 15 -87 21 -95 15 -194 39 -234 56 -17 8
-65 23 -106 35 -41 13 -91 29 -110 36 -19 8 -66 18 -104 24 -38 6 -77 15 -88
21 -10 5 -63 23 -119 39 -55 16 -116 38 -135 49 -20 12 -53 21 -75 21 -39 0
-97 12 -244 52 -38 11 -94 23 -123 28 -141 23 -234 69 -279 139 -51 80 58 190
207 210 52 7 136 19 185 27 50 8 116 14 148 14 64 0 131 47 158 111 11 29 15
31 49 25 66 -10 436 12 476 29 27 11 90 17 223 22 190 6 223 11 346 56 69 25
168 50 275 68 58 10 155 41 199 63 14 8 42 17 61 21 19 4 58 18 87 31 28 13
58 24 65 24 8 0 31 9 53 20 22 11 51 20 65 20 14 0 49 11 78 25 30 14 67 25
82 25 16 0 57 13 92 28 34 16 79 32 97 35 95 19 111 27 131 67 26 51 24 50
158 60 121 9 163 18 320 70 50 16 101 30 111 30 11 0 22 4 25 9 3 5 29 15 58
21 28 7 78 23 112 36 33 13 75 24 93 24 33 0 43 2 218 45 172 42 219 55 236
65 33 18 101 31 221 41 203 18 251 25 298 43 77 29 377 66 706 86 94 6 185 15
202 19 38 11 142 13 376 5 100 -3 237 -1 310 5 94 8 155 8 216 0 86 -11 328
-24 695 -39 353 -14 429 -21 442 -39 15 -22 27 -8 14 17 -12 22 -57 26 -446
42 -372 15 -610 28 -699 40 -65 8 -125 8 -230 -1 -82 -6 -210 -8 -306 -5 -215
9 -337 7 -379 -4 -19 -5 -112 -14 -205 -20 -328 -20 -629 -57 -706 -86 -47
-18 -95 -25 -298 -43 -120 -10 -188 -23 -221 -41 -17 -10 -64 -23 -236 -65
-175 -43 -185 -45 -218 -45 -18 0 -60 -11 -93 -24 -34 -13 -84 -29 -112 -36
-29 -6 -55 -16 -58 -21 -3 -5 -14 -9 -26 -9 -11 0 -70 -16 -131 -36 -62 -20
-125 -40 -142 -45 -124 -39 -287 -29 -332 22 -67 74 -118 87 -438 110 -71 5
-157 13 -190 18 -270 39 -400 48 -493 36 -38 -6 -64 -3 -95 9 -33 12 -77 15
-218 14 -96 -1 -180 2 -186 5 -27 17 -313 30 -376 17 -34 -7 -111 -14 -172
-15 -60 -2 -138 -10 -172 -19 -52 -14 -77 -14 -161 -5 -87 9 -104 8 -138 -7
-27 -12 -82 -20 -174 -25 -74 -4 -171 -13 -215 -20 -44 -6 -116 -13 -160 -14
-44 -2 -100 -11 -124 -19 -24 -9 -63 -16 -86 -16 -23 0 -64 -9 -90 -21 -26
-11 -86 -25 -133 -29 -121 -13 -130 -16 -189 -73 -54 -52 -120 -51 -444 4 -30
5 -76 9 -101 9 -25 0 -74 11 -109 24 -35 13 -95 27 -134 31 -38 4 -83 15 -100
24 -16 10 -61 30 -100 46 -38 15 -79 31 -90 36 -11 4 -54 13 -95 19 -41 6 -94
16 -117 21 -23 5 -54 9 -69 9 -15 0 -46 11 -69 24 -48 29 -182 66 -236 66 -20
0 -56 7 -79 15 -23 8 -59 15 -79 15 -21 0 -80 9 -131 20 -51 11 -108 20 -125
20 -17 0 -48 9 -70 20 -26 13 -59 20 -98 20 -38 0 -71 7 -97 20 -26 13 -59 20
-99 20 -33 0 -70 4 -83 9 -13 5 -77 17 -143 26 -66 9 -147 21 -180 26 -129 22
-597 57 -783 58 -57 1 -93 6 -115 18 -28 14 -78 17 -407 18 -206 1 -397 4
-425 8 -37 6 -57 4 -75 -7z m485 -21 c330 -2 385 -5 412 -19 22 -11 59 -16
115 -17 186 -1 654 -36 783 -58 33 -5 114 -17 180 -26 66 -9 130 -21 143 -26
13 -5 50 -9 83 -9 40 0 73 -7 99 -20 26 -13 59 -20 97 -20 39 0 72 -7 98 -20
22 -11 53 -20 70 -20 17 0 74 -9 125 -20 51 -11 110 -20 131 -20 20 0 56 -7
79 -15 23 -8 59 -15 79 -15 54 0 188 -37 236 -66 23 -13 54 -24 69 -24 15 0
46 -4 69 -9 23 -5 76 -15 117 -21 41 -6 84 -15 95 -19 11 -5 52 -21 90 -36 39
-16 84 -36 100 -46 17 -9 62 -20 100 -24 39 -4 99 -18 134 -31 35 -13 84 -24
109 -24 25 0 71 -4 101 -9 31 -6 133 -20 226 -32 181 -23 207 -35 230 -102 10
-27 53 -44 166 -67 57 -11 138 -31 179 -45 41 -13 131 -33 200 -45 69 -11 158
-30 198 -41 40 -11 110 -27 155 -35 45 -8 105 -19 132 -24 28 -5 75 -12 105
-16 30 -4 67 -13 81 -20 14 -7 49 -16 77 -20 192 -25 187 -254 -6 -254 -31 0
-97 -6 -147 -14 -49 -8 -133 -20 -185 -27 -95 -13 -95 -13 -172 -88 -82 -81
-144 -90 -398 -53 -41 6 -138 16 -215 22 -80 7 -181 23 -235 37 -52 13 -123
29 -157 33 -34 5 -87 21 -116 35 -30 14 -70 25 -91 25 -20 0 -69 9 -109 19
-39 10 -92 22 -117 26 -25 4 -57 14 -72 21 -15 8 -38 14 -51 14 -24 0 -82 15
-177 47 -25 8 -75 19 -112 23 -60 8 -113 21 -203 52 -16 6 -77 17 -135 24
-109 13 -133 19 -240 54 -36 11 -99 23 -140 27 -41 3 -117 16 -169 29 -51 13
-108 24 -126 24 -19 0 -46 5 -62 11 -15 7 -48 15 -73 20 -25 4 -63 12 -85 18
-102 26 -169 36 -371 60 -45 5 -92 16 -105 24 -32 21 -128 43 -219 52 -41 4
-95 14 -120 21 -25 8 -85 14 -135 14 -49 1 -112 6 -140 11 -27 5 -77 14 -110
19 -33 5 -96 16 -140 25 -193 37 -234 44 -309 50 -44 3 -89 11 -100 18 -12 7
-64 15 -116 18 -217 15 -447 38 -470 47 -14 5 -82 10 -152 10 -90 1 -137 6
-164 17 -20 8 -53 15 -73 15 -20 0 -52 5 -71 10 -19 6 -98 16 -175 23 -136 11
-249 13 -736 15 -129 1 -257 6 -285 11 -27 5 -71 13 -97 16 -31 4 -54 14 -65
27 -9 12 -29 35 -43 52 -57 67 9 113 191 132 36 3 77 13 92 20 96 49 207 76
383 94 116 12 200 28 241 45 20 8 57 15 81 15 25 0 71 6 102 14 31 8 110 17
176 20 66 3 136 10 155 16 19 5 118 10 220 10 145 1 190 4 210 15 17 11 36 13
60 8 19 -3 206 -7 415 -8z m6211 -355 c71 -6 132 -14 136 -18 4 -4 87 -6 185
-5 143 2 186 -1 220 -13 31 -12 58 -15 105 -10 35 4 74 8 88 8 25 2 279 -26
395 -43 33 -5 119 -13 190 -18 298 -22 370 -38 421 -93 56 -62 56 -62 37 -102
-17 -37 -32 -45 -124 -63 -18 -3 -63 -19 -97 -35 -35 -15 -76 -28 -92 -28 -15
0 -52 -11 -82 -25 -29 -14 -64 -25 -78 -25 -14 0 -43 -9 -65 -20 -22 -11 -45
-20 -53 -20 -7 0 -37 -11 -65 -24 -29 -13 -68 -27 -87 -31 -19 -4 -47 -13 -61
-21 -44 -22 -141 -53 -199 -63 -107 -18 -206 -43 -275 -68 -123 -45 -156 -50
-346 -56 -133 -5 -196 -11 -223 -22 -41 -18 -404 -38 -469 -27 -31 6 -42 15
-60 47 -29 52 -74 81 -138 89 -29 4 -64 13 -78 20 -14 7 -51 16 -81 20 -30 4
-77 11 -105 16 -27 5 -87 16 -132 24 -45 8 -115 24 -155 35 -40 11 -129 30
-198 41 -69 11 -151 30 -182 41 -31 11 -110 31 -175 44 -121 25 -173 42 -173
55 0 4 -14 24 -30 45 -58 73 44 143 232 159 31 2 78 14 104 25 25 12 66 21 90
21 23 0 55 5 71 11 15 7 71 16 123 20 52 4 131 13 175 19 44 6 141 15 215 19
89 5 148 13 172 24 32 15 50 16 136 6 84 -9 108 -8 162 6 36 9 117 18 184 20
67 2 137 8 156 13 48 13 77 14 226 2z"/>
<path d="M1559 2650 c-73 -22 -178 -100 -206 -153 -16 -32 -7 -53 11 -23 109
183 369 211 539 58 10 -9 43 -24 74 -34 62 -19 46 -23 173 43 101 52 253 41
354 -26 70 -47 105 -53 51 -9 -92 75 -127 86 -253 82 -121 -3 -114 -1 -231
-63 -39 -21 -119 -8 -156 25 -87 79 -264 128 -356 100z"/>
<path d="M11935 2232 c-59 -28 -201 -182 -169 -182 4 0 38 34 76 75 134 142
256 146 436 12 60 -45 122 -47 226 -5 103 41 166 39 263 -11 48 -24 53 -25 53
-11 0 15 -78 51 -143 66 -63 15 -97 11 -182 -24 -102 -40 -148 -39 -208 5
-106 79 -121 86 -221 90 -75 3 -98 0 -131 -15z"/>
</g>
</svg>