<svg xmlns="http://www.w3.org/2000/svg" viewBox="0 0 64 64" width="64" height="64"><rect x="2" y="2" width="60" height="60" rx="15" fill="#2FD3A2"/><g fill="#0E1B16"><path transform="translate(7.457000000000001,45.376000000000005) scale(0.017,-0.017)" d="M1133 0 1008 360H471L346 0H51L565 1409H913L1425 0ZM739 1192 733 1170Q723 1134 709.0 1088.0Q695 1042 537 582H942L803 987L760 1123Z"/><path transform="translate(31.400000000000002,45.376000000000005) scale(0.017,-0.017)" d="M1386 402Q1386 210 1242.0 105.0Q1098 0 842 0H137V1409H782Q1040 1409 1172.5 1319.5Q1305 1230 1305 1055Q1305 935 1238.5 852.5Q1172 770 1036 741Q1207 721 1296.5 633.5Q1386 546 1386 402ZM1008 1015Q1008 1110 947.5 1150.0Q887 1190 768 1190H432V841H770Q895 841 951.5 884.5Q1008 928 1008 1015ZM1090 425Q1090 623 806 623H432V219H817Q959 219 1024.5 270.5Q1090 322 1090 425Z"/></g></svg>